<?xml version="1.0" standalone="no"?>
<!DOCTYPE svg PUBLIC "-//W3C//DTD SVG 20010904//EN"
 "http://www.w3.org/TR/2001/REC-SVG-20010904/DTD/svg10.dtd">
<svg version="1.0" xmlns="http://www.w3.org/2000/svg"
 width="1084.000000pt" height="1280.000000pt" viewBox="0 0 1084.000000 1280.000000"
 preserveAspectRatio="xMidYMid meet">
<g transform="translate(0.000000,1280.000000) scale(0.100000,-0.100000)"
fill="#000000" stroke="none">
<path d="M9616 12729 c-659 -19 -1328 -77 -1796 -155 -542 -89 -997 -236
-1362 -440 -319 -177 -657 -447 -941 -752 -276 -297 -461 -577 -613 -932 -105
-245 -120 -270 -160 -270 -70 0 -70 131 0 615 59 413 75 554 82 750 8 199 -4
280 -43 314 -26 23 -32 23 -133 18 -136 -7 -328 -56 -538 -138 -314 -122 -362
-139 -548 -195 -228 -68 -279 -91 -279 -125 0 -19 11 -30 52 -52 69 -37 154
-53 353 -67 201 -14 242 -23 275 -62 21 -25 25 -40 25 -91 0 -75 -33 -239 -94
-466 -214 -794 -393 -1134 -909 -1726 -169 -193 -265 -316 -319 -407 -49 -82
-81 -110 -197 -172 -124 -65 -279 -113 -616 -191 -434 -100 -517 -130 -725
-262 -169 -107 -245 -138 -606 -243 -229 -67 -295 -94 -347 -139 -101 -89 -46
-235 130 -348 204 -130 525 -220 1104 -307 519 -79 690 -96 1029 -105 187 -4
282 -11 297 -19 26 -14 34 -41 70 -222 21 -106 27 -166 27 -280 l1 -145 -37
-88 c-20 -49 -98 -197 -172 -330 -213 -382 -297 -575 -344 -798 -65 -302 -50
-656 39 -935 62 -195 124 -286 280 -410 115 -91 169 -148 292 -310 191 -252
365 -344 647 -344 127 0 161 -13 183 -69 38 -95 34 -214 -23 -646 -81 -614
-54 -933 120 -1403 53 -141 203 -458 239 -502 l21 -25 0 26 c0 14 -11 68 -25
120 -103 388 -123 480 -135 634 -11 146 2 320 45 588 81 506 71 657 -72 1120
-41 134 -44 150 -30 164 25 25 61 9 80 -34 42 -95 136 -499 157 -676 21 -165
8 -413 -35 -697 -34 -220 -38 -265 -39 -445 0 -188 13 -337 34 -375 8 -13 9
-13 14 0 3 8 12 98 21 200 20 229 53 426 100 595 107 380 124 493 105 696 -22
246 -70 403 -179 597 -78 137 -96 181 -82 195 13 13 69 11 86 -3 32 -27 156
-326 205 -495 49 -171 63 -266 63 -425 -1 -163 -16 -273 -73 -535 -53 -249
-52 -242 -41 -249 16 -10 65 66 145 223 203 402 302 725 277 906 -22 153 -83
259 -261 450 -158 169 -176 202 -122 223 107 43 255 42 339 -1 101 -52 253
-217 390 -422 236 -354 405 -728 843 -1860 151 -391 234 -575 260 -575 19 0
10 116 -20 260 -37 185 -86 362 -216 784 -178 579 -242 817 -285 1062 -31 177
-31 414 -1 525 33 122 85 214 166 295 84 84 162 132 368 225 418 191 539 272
842 569 362 354 703 777 826 1023 57 113 49 126 -17 28 -323 -473 -672 -849
-968 -1044 -286 -188 -496 -252 -1150 -347 -445 -66 -637 -114 -1112 -281
-404 -142 -682 -215 -913 -240 -325 -35 -522 52 -845 376 -250 250 -405 471
-459 655 -40 136 -39 363 1 433 16 27 26 33 60 35 37 3 44 -1 74 -36 46 -54
111 -179 184 -351 55 -132 83 -176 101 -159 3 4 26 62 50 129 24 67 58 147 76
177 50 84 148 175 323 302 88 63 198 146 245 184 146 117 278 256 245 256 -16
0 -145 -58 -375 -170 -285 -138 -381 -179 -493 -210 -187 -52 -356 -1 -418
127 -18 37 -23 65 -24 123 0 130 25 200 182 510 211 416 279 586 379 949 73
265 96 383 101 521 10 242 -11 288 -282 605 -150 176 -209 318 -209 500 0 125
21 217 80 343 49 106 99 167 233 281 218 187 378 369 556 636 218 328 324 566
415 937 38 154 75 335 201 978 105 539 130 585 314 585 147 0 299 -67 340
-150 79 -158 -60 -866 -244 -1240 -99 -202 -180 -291 -385 -428 -60 -39 -111
-78 -114 -86 -6 -18 185 -8 376 20 159 23 314 24 437 4 164 -27 226 -17 278
44 26 31 37 61 92 261 60 218 292 582 577 907 106 121 353 363 473 464 506
426 983 645 1695 779 731 137 2311 262 2473 195 28 -12 16 -28 -43 -57 -59
-29 -166 -62 -595 -182 -449 -126 -640 -194 -1050 -376 -422 -187 -496 -204
-799 -175 -226 21 -313 14 -448 -35 -212 -77 -475 -262 -742 -520 -170 -165
-278 -292 -514 -605 -300 -397 -426 -513 -660 -605 -45 -18 -80 -36 -76 -39
16 -16 246 -44 589 -71 268 -22 559 -91 861 -206 339 -129 490 -182 739 -258
338 -104 329 -99 155 -107 -335 -17 -552 -109 -591 -251 -35 -131 61 -578 171
-799 59 -117 131 -167 173 -121 22 24 22 87 1 245 -36 276 17 440 158 482 149
44 355 -8 552 -139 138 -92 216 -189 216 -268 -1 -109 -156 -266 -404 -410
-60 -35 -118 -75 -129 -89 -19 -26 -19 -27 1 -72 13 -30 70 -97 165 -196 262
-271 326 -352 567 -706 217 -319 302 -428 439 -566 153 -152 267 -231 533
-365 103 -52 190 -94 194 -94 5 0 -45 36 -109 79 -343 232 -457 351 -732 766
-181 273 -273 396 -440 585 -192 219 -216 261 -181 315 9 14 85 76 169 138
177 132 272 224 318 310 29 54 34 71 34 132 -1 91 -25 139 -226 441 -235 354
-319 452 -468 549 -98 64 -203 106 -620 250 -783 270 -935 335 -977 417 -28
54 -14 126 50 253 100 196 257 397 516 656 307 307 528 471 945 699 355 194
444 232 1140 485 253 92 613 225 800 295 187 70 367 135 400 145 84 24 123 46
184 103 61 57 63 79 11 104 -52 25 -151 38 -379 48 -227 10 -288 10 -665 -1z
m-7102 -4495 c3 -9 6 -68 6 -132 0 -64 5 -154 12 -200 6 -45 9 -85 6 -87 -3
-3 -32 7 -64 22 -56 26 -67 28 -189 27 -221 -2 -567 -74 -955 -199 -245 -78
-397 -111 -584 -125 -169 -13 -306 -3 -306 21 0 22 258 112 675 234 187 55
295 103 403 178 94 67 153 96 257 130 175 57 582 144 686 146 34 1 49 -3 53
-15z"/>
<path d="M5791 8094 c-68 -18 -127 -50 -216 -117 -94 -70 -315 -288 -315 -310
0 -17 10 -18 163 -11 193 7 232 0 429 -79 275 -111 405 -118 595 -32 147 68
280 177 324 269 49 99 -5 137 -316 217 -296 76 -532 99 -664 63z"/>
</g>
</svg>
